<svg id="Layer_1" data-name="Layer 1" xmlns="http://www.w3.org/2000/svg" xmlns:xlink="http://www.w3.org/1999/xlink" viewBox="0 0 605.53 841.5"><defs><style>.cls-1{fill:#fee600;}.cls-2{fill:url(#radial-gradient);}.cls-3{fill:#fff;}.cls-4{fill:#010101;}</style><radialGradient id="radial-gradient" cx="350.16" cy="209.23" r="139.2" gradientUnits="userSpaceOnUse"><stop offset="0" stop-color="#fffabc"/><stop offset="0" stop-color="#fffab9"/><stop offset="0.04" stop-color="#fff58d"/><stop offset="0.09" stop-color="#fff168"/><stop offset="0.13" stop-color="#feee47"/><stop offset="0.18" stop-color="#feeb2d"/><stop offset="0.24" stop-color="#fee919"/><stop offset="0.3" stop-color="#fee70b"/><stop offset="0.38" stop-color="#fee603"/><stop offset="0.51" stop-color="#fee600"/><stop offset="0.69" stop-color="#fce103"/><stop offset="0.89" stop-color="#f8d40d"/><stop offset="1" stop-color="#f4c915"/><stop offset="1" stop-color="#f7cf24"/><stop offset="1" stop-color="#fad42f"/><stop offset="1" stop-color="#fcd636"/><stop offset="1" stop-color="#fcd738"/></radialGradient></defs><path class="cls-1" d="M420.21,307a175.42,175.42,0,0,1,30.1-2.22l58.75,1.8a13.66,13.66,0,0,0,14.27-14.68L512.44,106.79a15.21,15.21,0,0,0-16-14.26L177.66,111.28l1,18,9,153.59c.49,8.33,7.49,16.9,15.56,19l84.57,22.42c8.07,2.13,21.39,2.68,29.6,1.2Z"/><path class="cls-1" d="M287.56,325.29,203,302.88c-8.56-2.32-15.76-11.13-16.33-20h0l-9-153.59-1.06-19L496.33,91.5l1,0h0a16.26,16.26,0,0,1,16.19,15.26h0l10.88,185.16q0,.47,0,.93h0a14.71,14.71,0,0,1-14.87,14.84H509l-58.75-1.79c-.86,0-1.77-.05-2.74-.05h0a178.24,178.24,0,0,0-27.14,2.25h0L317.6,326.51a65.41,65.41,0,0,1-11.21.85h0a80,80,0,0,1-18.83-2.07ZM496.46,93.57,178.75,112.25l.95,16.94,9,153.59c.41,7.81,7.21,16.13,14.78,18.09h0l84.58,22.41a77.46,77.46,0,0,0,18.3,2h0a64.8,64.8,0,0,0,10.85-.81h0L420,306a179.58,179.58,0,0,1,27.5-2.28h0c1,0,1.92,0,2.81,0h0l58.74,1.8h.44a12.57,12.57,0,0,0,12.79-12.76h0c0-.27,0-.55,0-.82h0L511.41,106.85a14.21,14.21,0,0,0-14.12-13.31h0c-.28,0-.55,0-.83,0Z"/><path class="cls-2" d="M417.29,300.6a163.91,163.91,0,0,1,28.16-2.08l55,1.68a12.78,12.78,0,0,0,13.36-13.74L503.6,113.19a14.23,14.23,0,0,0-15-13.34L186.49,117l9.39,160.56c.46,7.8,7,15.82,14.56,17.82l82.95,21.35a76.36,76.36,0,0,0,27.7,1.13Z"/><path class="cls-3" d="M276.61,205.47a32.62,32.62,0,0,1-16,5.09q-10.41.62-17.23-5.72t-7.46-17.39q-.66-11.28,6-18.94t17.66-8.3A30.91,30.91,0,0,1,273.06,162l.37,6.31a25.51,25.51,0,0,0-14.18-2.91,17.49,17.49,0,0,0-13.06,6.41q-4.89,5.94-4.36,14.88.54,9.23,5.7,14.21T261,205.4a20.39,20.39,0,0,0,9.73-2.85l-.8-13.63-10.64.63-.31-5.16,16.34-1Z"/><path class="cls-3" d="M322.93,206.08l-6.78.39-8.93-13.14a29.11,29.11,0,0,0-2.36-3.11,12.2,12.2,0,0,0-2.28-2.06,7.49,7.49,0,0,0-2.45-1.1,9.85,9.85,0,0,0-2.89-.22l-4.67.27,1.21,20.68-5.69.33-2.86-48.6,14.51-.86a21.12,21.12,0,0,1,5.93.45,13.47,13.47,0,0,1,4.82,2.15,11.36,11.36,0,0,1,3.33,3.87,13.34,13.34,0,0,1,1.46,5.61,13.58,13.58,0,0,1-.49,4.71,12.26,12.26,0,0,1-2,3.91,13.14,13.14,0,0,1-3.22,3,17.49,17.49,0,0,1-4.35,2.07v.14a10.2,10.2,0,0,1,2.19,1.11,12.14,12.14,0,0,1,1.81,1.54,22.06,22.06,0,0,1,1.73,2.06c.58.77,1.23,1.67,1.95,2.69Zm-31.7-41.75,1,17.63,7.72-.45a11.85,11.85,0,0,0,3.91-.88,9.12,9.12,0,0,0,3-2,8.26,8.26,0,0,0,1.89-3.07,9.94,9.94,0,0,0,.52-4,7.63,7.63,0,0,0-2.88-5.94q-2.65-2-7.43-1.75Z"/><path class="cls-3" d="M367.24,203.47l-6.31.37L355,190.52l-20.61,1.21-4.05,13.91L324,206l15.79-49.7,5.9-.35ZM335.58,152.1a3.3,3.3,0,0,1-2.49-.86,3.35,3.35,0,0,1-.31-4.72,3.25,3.25,0,0,1,2.3-1.09,3.43,3.43,0,0,1,2.47.82,3.14,3.14,0,0,1,1.15,2.3,3.36,3.36,0,0,1-3.12,3.55Zm17.24,33.41L344,165.25A20.48,20.48,0,0,1,343,162h-.14a17.39,17.39,0,0,1-.58,3.3L336,186.5Zm-4.23-34.17a3.39,3.39,0,0,1-2.71-5.59,3.15,3.15,0,0,1,2.25-1.09,3.34,3.34,0,0,1,2.47.83,3.2,3.2,0,0,1,1.12,2.29,3.33,3.33,0,0,1-.81,2.43A3.18,3.18,0,0,1,348.59,151.34Z"/><path class="cls-3" d="M372,201.22l-.39-6.71a13.11,13.11,0,0,0,2.87,1.66,21.79,21.79,0,0,0,3.47,1.18,26.84,26.84,0,0,0,3.63.65,20.27,20.27,0,0,0,3.34.11c3.5-.2,6.08-1,7.73-2.41a7.33,7.33,0,0,0,1.2-9.13,9.86,9.86,0,0,0-2.55-2.52,23,23,0,0,0-3.75-2.1q-2.15-1-4.62-2.06c-1.75-.76-3.38-1.53-4.9-2.33a19.82,19.82,0,0,1-4-2.69,12,12,0,0,1-2.78-3.46,11.2,11.2,0,0,1-1.21-4.67,11.08,11.08,0,0,1,1.12-5.86,12.58,12.58,0,0,1,3.59-4.28,17.59,17.59,0,0,1,5.27-2.69,24.57,24.57,0,0,1,6.14-1.14q7.18-.44,10.58,1.11l.37,6.4c-3-1.81-6.73-2.59-11.22-2.33a18.9,18.9,0,0,0-3.71.61,10.39,10.39,0,0,0-3.25,1.47,7.47,7.47,0,0,0-2.24,2.41,6.06,6.06,0,0,0-.71,3.44,7,7,0,0,0,.88,3.18,7.86,7.86,0,0,0,2.2,2.35,19.77,19.77,0,0,0,3.43,2q2,.93,4.63,2c1.79.76,3.49,1.56,5.11,2.42a23.37,23.37,0,0,1,4.29,2.91,14.19,14.19,0,0,1,3,3.67,10.7,10.7,0,0,1,1.31,4.75,12.25,12.25,0,0,1-1.05,6.17,11.5,11.5,0,0,1-3.56,4.27,16.74,16.74,0,0,1-5.37,2.58,30.2,30.2,0,0,1-6.53,1.08,25.16,25.16,0,0,1-2.86,0c-1.14-.06-2.3-.17-3.49-.34a28.22,28.22,0,0,1-3.39-.68A10.66,10.66,0,0,1,372,201.22Z"/><path class="cls-3" d="M430.91,200.54q-10.34.61-17-5.84t-7.26-17.36q-.69-11.73,5.24-19.08t16.84-8q10.07-.58,16.62,5.83t7.19,17.36q.71,11.9-5.2,19.19T430.91,200.54Zm-2.25-45.1a15.69,15.69,0,0,0-12.11,6.25q-4.46,5.81-3.93,14.79t5.52,14.18a15.18,15.18,0,0,0,12.47,4.76q8-.46,12.3-6t3.75-14.88q-.57-9.63-5.35-14.61T428.66,155.44Zm-7.09-8.33a3.26,3.26,0,0,1-2.47-.86,3.34,3.34,0,0,1-.32-4.72,3.29,3.29,0,0,1,2.3-1.09,3.43,3.43,0,0,1,2.47.82,3.14,3.14,0,0,1,1.15,2.3,3.35,3.35,0,0,1-3.13,3.55Zm13-.76a3.24,3.24,0,0,1-2.39-.82,3.21,3.21,0,0,1-1.13-2.34,3.27,3.27,0,0,1,.81-2.43,3.19,3.19,0,0,1,2.25-1.09,3.34,3.34,0,0,1,2.47.83,3.2,3.2,0,0,1,1.12,2.3,3.32,3.32,0,0,1-.81,2.42A3.18,3.18,0,0,1,434.59,146.35Z"/><path class="cls-4" d="M209.17,226.39c1-.25,2-.48,3-.67s1.76-.35,2.49-.47l1.82-.28.93-.12a.83.83,0,0,1,1,.88l.92,15.61,13.49-15.9a2.77,2.77,0,0,1,1.3-.92,5.89,5.89,0,0,1,.95-.25c.37-.07.74-.13,1.12-.17l1-.1.74-.06a.58.58,0,0,1,.48.13.56.56,0,0,1,.17.36.58.58,0,0,1-.15.42l-13.7,14.5,16.63,17.85a.8.8,0,0,1,.16.31.48.48,0,0,1-.15.38.91.91,0,0,1-.43.24q-.49.12-1.26.24c-.51.08-1,.15-1.54.21l-1.4.14-.83.06a1.26,1.26,0,0,1-1.12-.46l-15.51-16.95,1,17.16a.75.75,0,0,1-.66.86c-.32.08-.68.15-1.08.22s-.79.14-1.16.19l-1.05.12-.72.06a.64.64,0,0,1-.74-.69l-1.71-28.94a4.39,4.39,0,0,0-.24-1.32,1.83,1.83,0,0,0-.51-.78,1.74,1.74,0,0,0-.75-.36,3.31,3.31,0,0,0-1-.06,9.14,9.14,0,0,0-1.28.16Z"/><path class="cls-4" d="M266.64,249.46a21,21,0,0,1-.54,6.48,13.33,13.33,0,0,1-2.45,5,11.87,11.87,0,0,1-4.36,3.37,17.18,17.18,0,0,1-6.3,1.45,16.41,16.41,0,0,1-6.4-.73,11.18,11.18,0,0,1-4.54-2.89,13.12,13.12,0,0,1-2.79-4.74,23,23,0,0,1-1.17-6.31,22.37,22.37,0,0,1,.44-6.36,12.62,12.62,0,0,1,2.26-4.93,11.33,11.33,0,0,1,4.21-3.28,17.18,17.18,0,0,1,6.25-1.42,17.44,17.44,0,0,1,6.4.68,11.67,11.67,0,0,1,4.71,2.76,12.58,12.58,0,0,1,3,4.62A20.38,20.38,0,0,1,266.64,249.46Zm-4.35.25a21.93,21.93,0,0,0-.9-5.2,11.48,11.48,0,0,0-2.06-3.95,8.56,8.56,0,0,0-3.31-2.45,10.41,10.41,0,0,0-4.63-.66,17.61,17.61,0,0,0-4.27.75,7.78,7.78,0,0,0-3.07,1.67,4.15,4.15,0,0,0-1,1.7,12.41,12.41,0,0,0-.56,2.57,28.33,28.33,0,0,0-.19,3.18c0,1.15,0,2.33.09,3.56a27.23,27.23,0,0,0,.79,5.22,12.28,12.28,0,0,0,1.84,4.07,7.77,7.77,0,0,0,3.13,2.57,9.72,9.72,0,0,0,4.69.72,18.41,18.41,0,0,0,4.49-.74,8.22,8.22,0,0,0,3.21-1.94,3.77,3.77,0,0,0,1-1.71,14.73,14.73,0,0,0,.58-2.65,26.41,26.41,0,0,0,.24-3.22C262.38,252,262.35,250.88,262.29,249.71Z"/><path class="cls-4" d="M273.21,227.05a2.8,2.8,0,0,0-1.29,0l-.06.06a1,1,0,0,1-1.09-.64,4.33,4.33,0,0,1-.46-1.79,4.11,4.11,0,0,1,.25-1.84c.2-.55.53-.81,1-.76a18.36,18.36,0,0,0,3,0,30.39,30.39,0,0,0,3.38-.37,1.87,1.87,0,0,1,1.59.2,6.71,6.71,0,0,1,.85,1.36l.32.5,10.69,27.18-1.41-24c0-.54-.22-.86-.58-1a8.43,8.43,0,0,0-2,.12l-.05.06a1.62,1.62,0,0,1-1.51-.73,3.74,3.74,0,0,1-.22-3.63,1.35,1.35,0,0,1,1.43-.66,46.07,46.07,0,0,0,4.69,0c1.6-.09,3.19-.26,4.78-.51a1.07,1.07,0,0,1,1.27.57,4.26,4.26,0,0,1,.21,3.62,1.29,1.29,0,0,1-1.18.84l-.13-.06a2.47,2.47,0,0,0-.81.17.81.81,0,0,0-.47.91l2,33.67a5,5,0,0,1-.7,3.09,2.94,2.94,0,0,1-1.86,1.34,3.47,3.47,0,0,1-2.24-.28,4.06,4.06,0,0,1-1.87-1.77l-11.09-29,1.47,24.9c0,.58.19.93.47,1a3.67,3.67,0,0,0,1.4-.15l.35,0a1.26,1.26,0,0,1,1.44.62,3.07,3.07,0,0,1,.64,1.84,3,3,0,0,1-.42,1.85,1.37,1.37,0,0,1-1.36.84c-1.8-.05-3.38,0-4.75,0s-2.86.17-4.72.4a1,1,0,0,1-1.1-.64,4.45,4.45,0,0,1-.46-1.85,4.1,4.1,0,0,1,.24-1.89c.2-.56.54-.78,1-.65l.35,0a2.3,2.3,0,0,0,1.11-.07,1,1,0,0,0,.41-1l-1.81-30.8C273.82,227.48,273.61,227.14,273.21,227.05Z"/><path class="cls-4" d="M306.09,263.05l-.36-6.09q7.5,3,12.24,2.69a8.52,8.52,0,0,0,5.69-2.26,6.3,6.3,0,0,0,1.91-5.11,6.66,6.66,0,0,0-1.7-4.24,19.2,19.2,0,0,0-5.57-3.66l-3.08-1.55q-5.7-2.84-8.14-5.49a10,10,0,0,1-2.64-6.34,10.55,10.55,0,0,1,3.13-8.47,13.38,13.38,0,0,1,9.05-3.78,37.15,37.15,0,0,1,10.65,1.05l.33,5.61q-7-2.28-10.36-2.09a8.11,8.11,0,0,0-5.16,2,5.25,5.25,0,0,0-1.82,4.39,5.49,5.49,0,0,0,1.74,3.74,24.27,24.27,0,0,0,5.79,3.64l3.2,1.58c3.87,1.9,6.59,3.75,8.19,5.56a10.75,10.75,0,0,1,2.62,6.68,11.18,11.18,0,0,1-3.62,9.3q-3.94,3.66-10.82,4.07A43.29,43.29,0,0,1,306.09,263.05Z"/><path class="cls-4" d="M358,220.37l-12.45.73-6.28,41.21-2.81.17,6.28-41.22-12.39.73.34-2.42L358.37,218Z"/><path class="cls-4" d="M380.84,260.44l-5,.44a11.8,11.8,0,0,1-3-5.68,42.41,42.41,0,0,1-.67-6.48q-.3-5.06-2.6-7.23l-3.39.27L368,261l-4.93-.14-4.12-44.15q4-.37,5.79-.56c1.18-.11,1.6-.16,1.26-.14a12.79,12.79,0,0,1,4.81.44q5,1.8,5.69,13,.39,6.63-2.68,9.86c1.42,1.27,2.3,3.39,2.62,6.36.12,1.35.25,2.68.38,4s.25,2.65.38,4A10.33,10.33,0,0,0,380.84,260.44Zm-9.35-30.94a19,19,0,0,0-.83-5.6q-1.23-2.33-4.9-2.11l-1.45.09,1.35,14.26L367,236l1.79-.22C370.8,235.35,371.72,233.25,371.49,229.5Z"/><path class="cls-4" d="M385.26,211.91q-.22,4.34,0,10.72t1.15,15.4q.49,4.47,1,7.29a15.83,15.83,0,0,0,1.21,4.11q1.35,2.56,5.61,2.49t5.23-2.95q.89-3.3.34-11.67-.53-9-1.09-15.43c-.37-4.31-.68-7.85-.93-10.64l4.08-.12A80.81,80.81,0,0,0,402,222q.5,6.28.92,15.57t-.32,13c-.5,2.47-2.19,3.91-5.09,4.32a24,24,0,0,1-6.82.41c-1.61-.15-3.13-1.36-4.54-3.64a16.76,16.76,0,0,1-1.76-4.91,56.54,56.54,0,0,1-1.08-7.66q-.39-4.55-.68-8.43c-.19-2.59-.32-5-.36-7.18a66.71,66.71,0,0,0-1.21-11.35Z"/><path class="cls-4" d="M413.67,214.41a.67.67,0,0,1,.51.16l.44.46,21.77,25.61-2.28-26.17c0-.24.14-.37.45-.41s.81-.16,1.39-.26,1.15-.15,1.69-.18c.32,0,.48.11.5.41l1,28.53.32,5.35c0,.24-.14.37-.45.41s-.74.11-1.18.16l-1.33.11a.72.72,0,0,1-.41-.08,1.19,1.19,0,0,1-.31-.32l-21.94-25.81,2.32,26.85c0,.23-.14.36-.45.4a13.27,13.27,0,0,1-1.44.23c-.61.08-1.16.13-1.64.16-.32,0-.48-.12-.5-.41L411,219.11,408.45,216a.47.47,0,0,1-.13-.32c0-.25.15-.44.49-.55s.71-.16,1.19-.24l1.47-.21c.5-.07.95-.13,1.35-.17S413.52,214.42,413.67,214.41Z"/><path class="cls-4" d="M443.78,210.55a4.1,4.1,0,0,1-.46-1.8,4.58,4.58,0,0,1,.24-1.89,1.07,1.07,0,0,1,1.19-.65c1.69,0,3.62,0,5.81-.05q3.74-.22,7.41-.73a11,11,0,0,1,10.26,5.08q3.72,5.37,4.33,15.65t-2.46,16a11,11,0,0,1-9.61,6.31q-3.75-.07-7.43.15-3.39.26-5.78.63a1.16,1.16,0,0,1-1.27-.63,4.61,4.61,0,0,1-.46-1.85,4.41,4.41,0,0,1,.25-1.89,1.07,1.07,0,0,1,1.18-.72,3,3,0,0,0,1.29,0c.43-.18.62-.59.58-1.21l-1.79-30.4c0-.7-.28-1.13-.72-1.3a1.6,1.6,0,0,0-1.29,0A1.16,1.16,0,0,1,443.78,210.55Zm10.52,33.22,5.43-.32c2.14-.12,3.91-1.44,5.29-3.94,1.65-3,2.32-7.38,2-13s-1.5-9.94-3.5-12.75q-2.49-3.43-5.71-3.25l-5.43.32Z"/><path class="cls-4" d="M499.66,244.89l-4.39-10.74-11.5.82L480.37,246l-3,.18,10.12-30.37,3.45-1.22,12.91,30Zm-5.12-12.66-5.78-13.68-4.38,14.28Z"/></svg>