<svg xmlns="http://www.w3.org/2000/svg" viewBox="0 0 101.88 102.71"><defs><style>.cls-1{stroke:#000;}.cls-2,.cls-3{fill:#fff;}.cls-3{stroke:#fff;stroke-width:0.25px;}</style></defs><g id="Lager_2" data-name="Lager 2"><g id="Layer_1" data-name="Layer 1"><rect class="cls-1" x="0.5" y="0.5" width="100.67" height="100.67"/><path class="cls-2" d="M26.14,47C19.36,44,15,39.77,15,34.92h0c0-4.85,4.37-9,11.15-12h0c6.81-3,16.14-4.84,26.46-4.84h0c10.31,0,19.64,1.84,26.45,4.84h0c6.78,3,11.13,7.18,11.15,12h0c0,4.85-4.37,9-11.15,12h0c-6.81,3-16.14,4.84-26.45,4.84h0C42.28,51.79,33,50,26.14,47Zm.38-23.21c-6.67,2.94-10.63,7-10.6,11.18h0c0,4.21,3.93,8.24,10.6,11.18h0C33.16,49,42.39,50.87,52.6,50.86h0C62.8,50.87,72,49,78.67,46.1h0c6.67-2.94,10.63-7,10.6-11.18h0c0-4.22-3.93-8.24-10.6-11.18h0C72,20.81,62.8,19,52.6,19h0c-10.21,0-19.44,1.84-26.08,4.77Z"/><path class="cls-2" d="M25.6,47.19C19.15,44.34,15,40.37,15,35.75h0c0-4.62,4.16-8.6,10.61-11.45h0c6.46-2.85,15.33-4.6,25.12-4.6h0c9.8,0,18.67,1.75,25.13,4.6h0c6.44,2.85,10.58,6.83,10.61,11.45h0c0,4.62-4.17,8.59-10.61,11.44h0c-6.46,2.85-15.33,4.6-25.13,4.6h0c-9.79,0-18.66-1.75-25.12-4.6Zm.37-22c-6.32,2.79-10.08,6.61-10,10.6h0c0,4,3.73,7.8,10,10.59h0c6.3,2.79,15.07,4.53,24.75,4.53h0c9.69,0,18.45-1.74,24.76-4.53h0c6.32-2.79,10.07-6.61,10-10.59h0c0-4-3.73-7.81-10-10.6h0c-6.31-2.78-15.07-4.52-24.76-4.52h0C41,20.63,32.27,22.37,26,25.15Z"/><path class="cls-2" d="M53.5,83.76a33.11,33.11,0,0,1-18-5.73h0L35.44,78,34,75.2h0l.82-.43,1.35,2.58a30.35,30.35,0,0,0,4.89,2.7h0A31,31,0,0,0,53.5,82.83h0a26.14,26.14,0,0,0,15.78-5.35h0c.38-.71,3-5.64,6.27-11.87h0c3.51-6.73,7.72-15,10.52-21h0c1.87-3.95,3.11-7.07,3.08-7.73h0v-.05h0l.92-.09a.61.61,0,0,1,0,.14h0c0,1.18-1.29,4.08-3.16,8.13h0c-1.88,4-4.38,9-6.88,13.89h0C75,68.7,70.05,78,70.05,78h0l0,.09-.08.06a27.08,27.08,0,0,1-16.4,5.6h0Z"/><path class="cls-2" d="M89.61,36.83c2.07-2.28-20,41-20,41-12.08,9.23-21.2,5.14-21.2,5.14S67.05,66.5,66.54,50.3C66.54,50.3,77.2,50.53,89.61,36.83Z"/><path class="cls-2" d="M48.25,83.35l-.66-.29.55-.48a75.24,75.24,0,0,0,9-9.92h0c4.5-6,9-13.89,9-21.7h0c0-.21,0-.43,0-.65h0v-.46h.51c.56,0,10.77-.16,22.69-13.31h0c.1-.07.06-.18.45-.24h0a.49.49,0,0,1,.43.27h0a.45.45,0,0,1,.06.24h0a10.4,10.4,0,0,1-.91,2.39h0c-.55,1.24-1.34,2.9-2.28,4.87h0c-1.89,3.92-4.4,9-6.91,14h0C75.08,68.13,70.05,78,70.05,78h0l0,.09-.09.07c-6.48,5-12.17,6.14-16.09,6.14h0a14.57,14.57,0,0,1-5.58-1ZM50,82.93a16.15,16.15,0,0,0,3.85.44h0c3.72,0,9.14-1.11,15.44-5.89h0c.51-1,5.1-10,9.77-19.35h0c3.89-7.75,7.84-15.81,9.47-19.46h0C78.11,49.4,69.15,50.62,67,50.75h0V51h0c0,14.6-14.61,28.9-17.69,31.79h0q.27.09.66.18Z"/><path class="cls-2" d="M15,35.66l.9-.21s.57,2.43,1.54,5.43h0a36.06,36.06,0,0,0,3.86,8.78h0l-.76.53C17.27,45.47,15,35.69,15,35.66Z"/><path class="cls-2" d="M18,68.7l-.14,0-.1-.11a4.64,4.64,0,0,1-1.06-3.26h0A13.64,13.64,0,0,1,17.57,61h0c1.85-4.58,4.94-5.69,7.2-5.66h0a7.64,7.64,0,0,1,3,.58h0l-.39.84s-.28-.12-.74-.25h0a7.27,7.27,0,0,0-1.83-.25h0c-2,0-4.57.81-6.34,5.08h0a13.13,13.13,0,0,0-.79,4h0a3.94,3.94,0,0,0,.73,2.53h0a47.64,47.64,0,0,0,9.17,1.08h0a18.81,18.81,0,0,0,3.85-.35h0l.64-.13.18.91-.63.12a18.85,18.85,0,0,1-4,.38h0A48.2,48.2,0,0,1,18,68.7Z"/><path class="cls-2" d="M36.88,76.54a3,3,0,0,0-.68-.69h0a7.54,7.54,0,0,0-4.35-1.16h-.06a87.55,87.55,0,0,1-9.91-.64h0c-3.73-.54-13.44-4.81-13.55-12h0c0-2.64,1.38-5.55,4.85-8.69h0c4.59-2.82,6.81-3.77,9.22-3.77h.34l.8-.34.36.85-1,.43H22.4c-2.12,0-4.16.81-8.67,3.58h0c-3.28,3-4.47,5.65-4.47,7.95h0C9.14,68.3,18.57,72.73,22,73.13h0a87.59,87.59,0,0,0,9.85.63h0c5,.11,6,2.59,6,2.73h0l-.88.29h0a.9.9,0,0,0-.14-.25Z"/><path class="cls-2" d="M30.13,68.47a16,16,0,0,1-1-1.45h0c-.74-1.17-1.61-2.72-2.46-4.26h0c-1.66-3-3.2-6-3.24-6.13h0l.82-.42s3.29,6.44,5.46,10h0a10.75,10.75,0,0,0,1.52,2.12h0l-.11.17,0-.2-.11.93c-.48-.13-.59-.39-.91-.75Zm1.11-.15ZM23.43,56.63h0Z"/><path class="cls-2" d="M39.94,20.87s.27,29.47,2.7,30.05-29.45-3.71-27.1-16.8C15.54,34.12,16.51,24.58,39.94,20.87Z"/><path class="cls-2" d="M28.46,47.89C21.76,45.41,15,41.54,15,35.48h0a8.22,8.22,0,0,1,.13-1.41h0c0-.22,1.25-10,24.79-13.66h0l.53-.08v.53s.14,15.56,1.15,24.24h0c.3,2.86.84,5.08,1.2,5.35h0a1.28,1.28,0,0,1,.23.08h0c0,.05.17,0,.25.42h0a.44.44,0,0,1-.29.43h0l-.13,0h-.08a67.89,67.89,0,0,1-14.27-3.54ZM42.72,50.5ZM16.48,32.77A4.35,4.35,0,0,0,16,34.2h0a7.1,7.1,0,0,0-.12,1.28h0c-.06,5.24,6.24,9.11,12.9,11.54h0a71.92,71.92,0,0,0,12.86,3.34h0c-.09-.23-.17-.49-.26-.78h0A27.49,27.49,0,0,1,40.73,46h0c-.37-2.86-.63-6.61-.82-10.33h0c-.31-6.26-.41-12.46-.43-14.29h0c-17.06,2.82-21.73,8.71-23,11.36Z"/><polygon class="cls-3" points="101.75 78.57 77.74 102.58 101.75 102.58 101.75 78.57"/></g></g></svg>