<svg xmlns="http://www.w3.org/2000/svg" viewBox="0 0 101.76 101.93"><defs><style>.cls-1{stroke:#000;}.cls-2{fill:none;}.cls-2,.cls-3,.cls-4,.cls-5{stroke:#fff;}.cls-2,.cls-3,.cls-4{stroke-miterlimit:10;}.cls-2,.cls-4{stroke-width:1.5px;}.cls-3,.cls-4,.cls-5{fill:#fff;}.cls-5{stroke-width:0.25px;}</style></defs><g id="Lager_2" data-name="Lager 2"><g id="Layer_1" data-name="Layer 1"><rect class="cls-1" x="0.5" y="0.5" width="100.67" height="100.67"/><path class="cls-2" d="M22.58,84.81l27.3-29,27.69,29a5.67,5.67,0,0,0,4,.6,5.12,5.12,0,0,0,3.16-2.08,5.41,5.41,0,0,0,.4-4.75L54.53,50.83l9.2-10.13a17,17,0,0,0,9-2.27,15.56,15.56,0,0,0,4-3.46L88.06,21.12a.83.83,0,0,0-.45-.84.81.81,0,0,0-1,.25L74.36,33.39a1.15,1.15,0,0,1-1.68.19A1.14,1.14,0,0,1,72.92,32L85.19,19.14A.86.86,0,0,0,83.9,18L71.24,31A1.05,1.05,0,1,1,70,29.33L82.32,16.82a1,1,0,0,0-1.14-1.48l-13,12.8a1.07,1.07,0,1,1-1.34-1.63l12.91-12a1,1,0,0,0-.1-1.24,1,1,0,0,0-1.49.15L63.87,25.62A13.29,13.29,0,0,0,62,28.29a13.63,13.63,0,0,0-.9,2.08,18.31,18.31,0,0,0-.49,6.83L50.08,46.84l-9.84-8.71.15-7.66a21.55,21.55,0,0,0-2.87-6.33,23.48,23.48,0,0,0-3.71-4.2,27.56,27.56,0,0,0-8.21-5,24.12,24.12,0,0,0-5.89-1.78c-2.77-.45-4-.11-4.94.35a5.92,5.92,0,0,0-1.88,1.53,8.06,8.06,0,0,0-1.68,4.85,15.42,15.42,0,0,0,1.68,7.71A24.79,24.79,0,0,0,17,33.83a23,23,0,0,0,5.93,5.44,20.32,20.32,0,0,0,6.87,2.62l6.53,0L45.23,51l.25.59L16.4,78.48a4.64,4.64,0,0,0,.5,5.89,4.54,4.54,0,0,0,4.79.84Z"/><polygon class="cls-3" points="23.44 71.98 24 83.31 20.44 85.55 17.22 84.64 15.61 80.71 17.4 77.56 21.39 73.88 23.44 71.98"/><line class="cls-4" x1="45.48" y1="51.63" x2="50.08" y2="46.84"/><line class="cls-4" x1="49.88" y1="55.84" x2="54.53" y2="50.83"/><polygon class="cls-5" points="101.63 77.79 77.62 101.8 101.63 101.8 101.63 77.79"/></g></g></svg>