<svg xmlns="http://www.w3.org/2000/svg" viewBox="0 0 101.73 101.78"><defs><style>.cls-1{stroke:#000;}.cls-2,.cls-4{fill:#fff;}.cls-3{fill:none;}.cls-4{stroke:#fff;stroke-width:0.25px;}</style></defs><g id="Lager_2" data-name="Lager 2"><g id="Layer_1" data-name="Layer 1"><rect class="cls-1" x="0.5" y="0.5" width="100.67" height="100.67"/><path class="cls-2" d="M53.27,84.06a9,9,0,0,1-2.71-.37h0l.33-.94a8.7,8.7,0,0,0,2.38.31h0c2.23,0,5.73-.71,9.3-4.34h0a20.17,20.17,0,0,0,1.72-2.63h0A12.27,12.27,0,0,0,66,70.6h0c0-2.84-.33-6.93-.33-9.48h0a6.85,6.85,0,0,1,.24-2.29h0a7.38,7.38,0,0,1,3.39-3.52h0c1.51-.73,5.17-2.53,6.11-3.12h0c.64-.31,2.43-3.49,2.36-4.93h0a1.58,1.58,0,0,0-.06-.45h0a17,17,0,0,0-.93-2.71h0a11.62,11.62,0,0,0-3.3-4.55h0c-3.29-2.57-11.38-7.92-11.35-7.9h0s-1.81-.95-4.11-1.9h0a21,21,0,0,0-6.86-1.89H50.7a22.6,22.6,0,0,0-5.26.61h0c-2.09.54-3.88,1.53-4.27,3.16h0a24.08,24.08,0,0,1-.39,2.51h0c-.32,1.32-.54,2.67-1.48,3.19h0A14.58,14.58,0,0,1,34.69,39h0c-1.74.13-7.44.14-10.87,1h0a32.4,32.4,0,0,0-5.25,1.81h0C15.84,43,13,44.92,12.37,47.22h0l0,.05,0,0a10.8,10.8,0,0,0-.65,1.63h0A14.13,14.13,0,0,0,11,53.16h0a12.91,12.91,0,0,0,2.77,8h0l-.79.6a13.83,13.83,0,0,1-3-8.56h0a14.7,14.7,0,0,1,1.4-6.27h0C13.24,41.3,23.57,39.11,23.59,39h0c3.62-.9,9.36-.88,11-1h0a9.55,9.55,0,0,0,2.68-.82h0c.86-.38,1.52-.75,1.55-.77h0a5.1,5.1,0,0,0,.95-2.5h0c.26-1.24.38-2.42.38-2.42h0v-.06c.54-2.29,2.8-3.38,5-4h0a23.54,23.54,0,0,1,5.51-.63h.46c4.11,0,11.38,3.9,11.47,3.93h0s8.1,5.35,11.46,8h0c3.51,2.76,4.56,7.79,4.57,7.79h0a2.34,2.34,0,0,1,.1.71h0A9.38,9.38,0,0,1,75.93,53h0c-1.06.66-4.66,2.43-6.21,3.17h0a6.45,6.45,0,0,0-2.91,3h0a7.12,7.12,0,0,0-.15,1.88h0c0,2.48.32,6.58.33,9.48h0c0,4.31-3.62,8.7-3.67,8.78h0c-3.78,3.86-7.59,4.68-10,4.68h0Z"/><path class="cls-2" d="M65.67,64.58s4.16-3.15,5.25-4.12h0c1-.93,2.39-2.59,4.39-8.23h0l1,.34c-2,5.69-3.45,7.55-4.67,8.63h0c-1.17,1-5.31,4.17-5.31,4.18h0l-.61-.8Z"/><path class="cls-2" d="M47.07,92.93a24.7,24.7,0,0,1-6-.8h0A72.28,72.28,0,0,1,16,78.2h0A35.09,35.09,0,0,1,7.78,67.71h0a6.81,6.81,0,0,1-.8-3H7c0-2.29,1.27-4.78,2.77-13.53h0l1,.18C9.22,60.12,8,62.83,8,64.71H8a5.79,5.79,0,0,0,.7,2.58h0A34.46,34.46,0,0,0,16.6,77.43h0A76.11,76.11,0,0,0,33.66,88.24h0a52.7,52.7,0,0,0,7.65,2.93h0a24.14,24.14,0,0,0,5.76.76h0a12.82,12.82,0,0,0,6.63-1.54h0c.27-.16.38-.26.45-.3h0c.85-.46,2.72-3.13,4.21-5.59h0c1.52-2.47,2.77-4.78,2.77-4.79h0l.88.48s-1.26,2.34-2.8,4.84h0c-1.56,2.51-3.27,5.13-4.49,5.88h0c-.07,0-2.52,2-7.63,2h0Z"/><polygon class="cls-2" points="38.05 52.33 82.72 13.43 83.38 14.18 38.71 53.09 38.05 52.33 38.05 52.33"/><polygon class="cls-2" points="39.53 54.32 84.04 13.93 84.71 14.67 40.2 55.06 39.53 54.32 39.53 54.32"/><polygon class="cls-2" points="41.83 54.82 84.86 14.76 85.54 15.49 42.51 55.55 41.83 54.82 41.83 54.82"/><polygon class="cls-2" points="43.14 56.31 86 15.26 86.69 15.98 43.83 57.03 43.14 56.31 43.14 56.31"/><polygon class="cls-2" points="44.13 56.97 86.66 15.43 87.36 16.14 44.83 57.69 44.13 56.97 44.13 56.97"/><polygon class="cls-2" points="45.77 58.46 87.81 16.42 88.52 17.13 46.48 59.16 45.77 58.46 45.77 58.46"/><path class="cls-2" d="M81.62,13.14l5.22-4.3.09,0a4.24,4.24,0,0,1,1.22-.17h0a3.49,3.49,0,0,1,1.15.17h0a38.6,38.6,0,0,1,4.82,2.93h0l-.56.82s-.91-.63-2-1.29h0A18.63,18.63,0,0,0,89,9.76h0a2.77,2.77,0,0,0-.84-.13h0a3,3,0,0,0-.82.11h0l-5.08,4.17-.63-.77Z"/><path class="cls-3" d="M93.16,12.72c0,.92.34,2.52-.35,3.09-.91.69-2.4-.68-3.2.58-.81-2.64-3.44-2.52-5.73-2.75"/><path class="cls-2" d="M92.19,13c0,.56.07,1.12.09,1.68,0,1.21,0,.8-1.07.73a3.07,3.07,0,0,0-2.49,1l1.85-.3c-1-2.66-3.63-2.71-6.07-2.93-.47,0-2.25.78-1.23.88,2.18.19,4.49.17,5.37,2.56.2.55,1.61,0,1.85-.3a7.89,7.89,0,0,0,1.24.12A4,4,0,0,0,93.38,16c1.22-.6.78-2.48.74-3.53,0-.43-2-.09-1.93.52Z"/><path class="cls-3" d="M58.27,41.17c-1.45-1.24-5-1.91-6.79-.92a5.76,5.76,0,0,0-1.84,8.67c2.53,3.64,5,3.84,8.07,3.25S63.54,43,61,42.46"/><path class="cls-2" d="M59.18,40.83a8.05,8.05,0,0,0-10,.56c-3.83,3.56-.61,9.55,3.51,11.13,2.62,1,6.46.23,8.11-2.11,1-1.47,4-7.33,1-8.33-.45-.15-2.18.57-1.58.77,1.66.55.6,3.78.25,4.84-.81,2.48-2,4.38-4.83,4.31-3.16-.07-5.6-3.4-6.17-6.21a5.46,5.46,0,0,1,1.49-4.53c1.61-1.84,4.73-1,6.44.24.45.33,2.13-.44,1.82-.67Z"/><path class="cls-3" d="M63.89,44.29c-.3-2.62-3.25-6.67-6-7.37C54,35.83,51.36,36.11,47,42.59c-2.37,3.55.49,10.2,3.58,12.09a7.7,7.7,0,0,0,7.4.57"/><path class="cls-2" d="M64.85,44c-1.64-8.46-11-10.18-16.42-4.4-3.81,4.09-4,8.43-1,13.12,2.41,3.71,7.07,4.27,10.9,2.74,1.27-.51.06-.78-.68-.48-7,2.78-12.74-7-9.68-12.58,2.09-3.82,6.2-6.87,10.5-4.49a10,10,0,0,1,4.43,6.61c.09.44,2,0,1.93-.52Z"/><path class="cls-3" d="M9.76,55.52C15.09,67,30,75.16,40.52,81.13"/><path class="cls-2" d="M9,55.72C15.16,68,28.4,74.91,39.84,81.39c.38.22,1.59-.38,1.36-.51C29.82,74.44,16.57,67.53,10.49,55.33c-.2-.39-1.59.11-1.45.39Z"/><path class="cls-2" d="M30.81,50.12l2-1.12.21-.11L51.39,62.1,49.73,64,30.81,50.12Zm1.39.09L49.62,63l.67-.76L33,49.78l-.78.43Z"/><path class="cls-2" d="M10,53.67s-1.17,6-2.5,11.16S25.6,89.32,39.27,90.32L30.65,75.91S11.17,66.67,10,53.67Z"/><path class="cls-2" d="M39.23,90.82c-6.81-.51-14.8-5.34-21.16-10.75h0C11.73,74.6,7,68.73,6.94,65.38h0A2.93,2.93,0,0,1,7,64.71H7c1.33-5.15,2.49-11.13,2.5-11.14h0l1,0c.55,6.25,5.6,11.75,10.57,15.65h0a58.77,58.77,0,0,0,9.79,6.19h0l.14.06,9.19,15.37-1-.07ZM8,65a1.73,1.73,0,0,0,0,.42h0C7.87,67.9,12.46,74,18.72,79.31h0c5.94,5.08,13.38,9.58,19.61,10.41h0l-8-13.43c-1.65-.84-17.19-8.61-20.3-20h0c-.47,2.23-1.2,5.6-2,8.68ZM9.51,53.71l.5,0-.5,0Z"/><polygon class="cls-4" points="101.6 77.64 77.59 101.65 101.6 101.65 101.6 77.64"/></g></g></svg>