<svg xmlns="http://www.w3.org/2000/svg" xmlns:xlink="http://www.w3.org/1999/xlink" viewBox="0 0 347.83 235.89"><defs><style>.cls-1{fill:#fee600;}.cls-2{fill:url(#radial-gradient);}.cls-3{fill:#fff;}.cls-4{fill:#010101;}</style><radialGradient id="radial-gradient" cx="173.6" cy="117.77" r="139.2" gradientUnits="userSpaceOnUse"><stop offset="0" stop-color="#fffabc"/><stop offset="0" stop-color="#fffab9"/><stop offset="0.04" stop-color="#fff58d"/><stop offset="0.09" stop-color="#fff168"/><stop offset="0.13" stop-color="#feee47"/><stop offset="0.18" stop-color="#feeb2d"/><stop offset="0.24" stop-color="#fee919"/><stop offset="0.3" stop-color="#fee70b"/><stop offset="0.38" stop-color="#fee603"/><stop offset="0.51" stop-color="#fee600"/><stop offset="0.69" stop-color="#fce103"/><stop offset="0.89" stop-color="#f8d40d"/><stop offset="1" stop-color="#f4c915"/><stop offset="1" stop-color="#f7cf24"/><stop offset="1" stop-color="#fad42f"/><stop offset="1" stop-color="#fcd636"/><stop offset="1" stop-color="#fcd738"/></radialGradient></defs><g id="Lager_2" data-name="Lager 2"><g id="Layer_1" data-name="Layer 1"><path class="cls-1" d="M243.66,215.57a176.24,176.24,0,0,1,30.09-2.22l58.75,1.8a13.65,13.65,0,0,0,14.27-14.68L335.89,15.32a15.22,15.22,0,0,0-16-14.25L1.1,19.81l1,18,9,153.58c.49,8.33,7.49,16.9,15.56,19l84.58,22.41c8.06,2.14,21.38,2.68,29.6,1.21Z"/><path class="cls-1" d="M111,233.82,26.42,211.41c-8.56-2.32-15.76-11.13-16.33-20h0l-9-153.59L0,18.83,319.78,0l1,0h0a16.26,16.26,0,0,1,16.19,15.26h0l10.89,185.16c0,.31,0,.62,0,.94h0A14.69,14.69,0,0,1,333,216.19h-.5l-58.75-1.8c-.86,0-1.77,0-2.74,0h0a179.43,179.43,0,0,0-27.13,2.24h0L141,235.05a66.5,66.5,0,0,1-11.21.84h0A78.92,78.92,0,0,1,111,233.82ZM319.91,2.1,2.19,20.78l1,16.94,9,153.59c.41,7.81,7.21,16.13,14.79,18.09h0l84.57,22.42a77.49,77.49,0,0,0,18.3,2h0a64.63,64.63,0,0,0,10.85-.81h0l102.79-18.45a179.58,179.58,0,0,1,27.5-2.28h0c1,0,1.92,0,2.81,0h0l58.74,1.79H333a12.6,12.6,0,0,0,12.8-12.76h0c0-.28,0-.56,0-.83h0L334.85,15.38a14.19,14.19,0,0,0-14.12-13.3h0c-.28,0-.55,0-.82,0Z"/><path class="cls-2" d="M240.73,209.13a164,164,0,0,1,28.17-2.07l55,1.68A12.79,12.79,0,0,0,337.24,195L327.05,21.72A14.24,14.24,0,0,0,312,8.38L9.94,25.55l9.39,160.56c.46,7.79,7,15.81,14.56,17.81l82.94,21.35a76.42,76.42,0,0,0,27.71,1.13Z"/><path class="cls-3" d="M100.05,114a32.59,32.59,0,0,1-16,5.09q-10.41.61-17.22-5.72T59.33,96q-.66-11.3,6-18.95T83,68.74a31,31,0,0,1,13.48,1.79l.37,6.31a25.65,25.65,0,0,0-14.19-2.91,17.45,17.45,0,0,0-13,6.42q-4.89,5.93-4.37,14.88.54,9.21,5.7,14.2t13.46,4.5a20.28,20.28,0,0,0,9.73-2.85l-.8-13.63-10.64.63-.31-5.15,16.34-1Z"/><path class="cls-3" d="M146.38,114.61l-6.78.4-8.94-13.15a30.16,30.16,0,0,0-2.36-3.11A12.2,12.2,0,0,0,126,96.69a7.53,7.53,0,0,0-2.44-1.1,9.91,9.91,0,0,0-2.89-.22l-4.68.28,1.22,20.67-5.7.34-2.86-48.61,14.51-.85a20.38,20.38,0,0,1,5.93.45,13.06,13.06,0,0,1,4.82,2.15,11.16,11.16,0,0,1,3.34,3.86,14.85,14.85,0,0,1,1,10.32,12.14,12.14,0,0,1-1.94,3.91,13.37,13.37,0,0,1-3.23,3A16.83,16.83,0,0,1,128.71,93v.14a10,10,0,0,1,2.19,1.11,11.73,11.73,0,0,1,1.81,1.55,21.9,21.9,0,0,1,1.74,2c.57.77,1.22,1.67,1.94,2.7ZM114.67,72.87l1,17.62,7.73-.45a11.71,11.71,0,0,0,3.91-.88,9,9,0,0,0,3-2,8.33,8.33,0,0,0,1.9-3.07,9.77,9.77,0,0,0,.51-4,7.59,7.59,0,0,0-2.88-5.93q-2.66-2-7.43-1.76Z"/><path class="cls-3" d="M190.68,112l-6.31.37-6-13.32-20.61,1.21-4,13.91-6.34.38,15.78-49.71,5.9-.34ZM159,60.63a3.3,3.3,0,0,1-2.48-.85,3.35,3.35,0,0,1-.32-4.73A3.29,3.29,0,0,1,158.53,54a3.39,3.39,0,0,1,2.46.83,3.12,3.12,0,0,1,1.15,2.29A3.36,3.36,0,0,1,159,60.63ZM176.26,94l-8.85-20.26a19,19,0,0,1-.93-3.21h-.14a18.43,18.43,0,0,1-.59,3.3L159.41,95ZM172,59.87a3.29,3.29,0,0,1-2.4-.81,3.45,3.45,0,0,1-.31-4.78,3.15,3.15,0,0,1,2.24-1.09A3.33,3.33,0,0,1,174,54a3.17,3.17,0,0,1,1.12,2.3,3.32,3.32,0,0,1-.81,2.43A3.17,3.17,0,0,1,172,59.87Z"/><path class="cls-3" d="M195.45,109.75l-.4-6.71a13.37,13.37,0,0,0,2.87,1.67,21.77,21.77,0,0,0,3.47,1.17,27.12,27.12,0,0,0,3.63.65,19.22,19.22,0,0,0,3.34.11q5.25-.3,7.73-2.41a7.33,7.33,0,0,0,1.2-9.13,9.86,9.86,0,0,0-2.55-2.52A23.61,23.61,0,0,0,211,90.49c-1.44-.66-3-1.34-4.63-2.06s-3.38-1.54-4.9-2.33a20.85,20.85,0,0,1-4-2.69A12.12,12.12,0,0,1,194.7,80a12.37,12.37,0,0,1-.1-10.54,12.61,12.61,0,0,1,3.6-4.28,17.41,17.41,0,0,1,5.26-2.69,24.65,24.65,0,0,1,6.14-1.14q7.18-.42,10.58,1.11l.38,6.41q-4.49-2.73-11.23-2.33a18.28,18.28,0,0,0-3.71.6,10.8,10.8,0,0,0-3.24,1.47A7.36,7.36,0,0,0,200.14,71a6,6,0,0,0-.72,3.44,7,7,0,0,0,.89,3.18A8,8,0,0,0,202.5,80a20.16,20.16,0,0,0,3.44,2q2,.94,4.62,2t5.11,2.42A22.6,22.6,0,0,1,220,89.3,14,14,0,0,1,223,93a10.88,10.88,0,0,1,1.32,4.75,12.23,12.23,0,0,1-1.05,6.17,11.63,11.63,0,0,1-3.56,4.28,16.57,16.57,0,0,1-5.38,2.57,29.6,29.6,0,0,1-6.53,1.08,27.38,27.38,0,0,1-2.86,0c-1.14-.06-2.3-.18-3.49-.34a28.2,28.2,0,0,1-3.39-.69A10.41,10.41,0,0,1,195.45,109.75Z"/><path class="cls-3" d="M254.35,109.08q-10.33.6-17-5.84t-7.26-17.37q-.69-11.72,5.24-19.08t16.84-8q10.07-.59,16.62,5.83T276,82q.71,11.9-5.2,19.18T254.35,109.08ZM252.11,64A15.71,15.71,0,0,0,240,70.23Q235.54,76,236.07,85t5.51,14.19A15.22,15.22,0,0,0,254.05,104q8-.48,12.3-6t3.75-14.88q-.56-9.63-5.35-14.62T252.11,64ZM245,55.65a3.35,3.35,0,0,1-2.48-.86,3.35,3.35,0,0,1-.32-4.73A3.29,3.29,0,0,1,244.53,49a3.39,3.39,0,0,1,2.46.83,3.12,3.12,0,0,1,1.15,2.29,3.19,3.19,0,0,1-.84,2.43A3.22,3.22,0,0,1,245,55.65Zm13-.77a3.29,3.29,0,0,1-2.4-.81,3.24,3.24,0,0,1-1.12-2.35,3.19,3.19,0,0,1,.81-2.43,3.11,3.11,0,0,1,2.25-1.08A3.3,3.3,0,0,1,260,49a3.18,3.18,0,0,1,1.12,2.3,3.3,3.3,0,0,1-.81,2.43A3.17,3.17,0,0,1,258,54.88Z"/><path class="cls-4" d="M32.61,134.93c1-.26,2-.49,3-.68s1.77-.35,2.5-.47l1.81-.28a9.13,9.13,0,0,1,.93-.11.83.83,0,0,1,1,.88l.92,15.6L56.22,134a2.86,2.86,0,0,1,1.3-.93,7.59,7.59,0,0,1,.95-.25c.37-.07.74-.12,1.12-.16s.73-.08,1-.11l.75-.06a.6.6,0,0,1,.47.13.55.55,0,0,1,0,.78l-13.69,14.5,16.62,17.85a.82.82,0,0,1,.16.32.47.47,0,0,1-.15.37.89.89,0,0,1-.42.25c-.33.08-.75.15-1.27.23s-1,.15-1.54.21-1,.11-1.4.14l-.83.06a1.23,1.23,0,0,1-1.11-.46L42.73,149.9l1,17.16a.75.75,0,0,1-.65.86c-.33.08-.69.15-1.09.23l-1.16.18-1.05.12-.72.06c-.46,0-.71-.2-.74-.69l-1.7-28.94a4.8,4.8,0,0,0-.24-1.32,1.84,1.84,0,0,0-.52-.77,1.56,1.56,0,0,0-.75-.37,3.7,3.7,0,0,0-1-.06,11.19,11.19,0,0,0-1.28.16Z"/><path class="cls-4" d="M90.08,158a21,21,0,0,1-.54,6.48,13.43,13.43,0,0,1-2.44,5.05,12.07,12.07,0,0,1-4.37,3.36,17.17,17.17,0,0,1-6.29,1.45A16.47,16.47,0,0,1,70,173.6a11.18,11.18,0,0,1-4.54-2.89A13.07,13.07,0,0,1,62.7,166a23.45,23.45,0,0,1-1.17-6.31,22.68,22.68,0,0,1,.44-6.36,12.37,12.37,0,0,1,2.27-4.93,11.12,11.12,0,0,1,4.2-3.28,17.07,17.07,0,0,1,6.25-1.43,17.71,17.71,0,0,1,6.41.68,11.92,11.92,0,0,1,4.71,2.76,12.84,12.84,0,0,1,3,4.62A20.39,20.39,0,0,1,90.08,158Zm-4.35.25a21.85,21.85,0,0,0-.89-5.19,11.63,11.63,0,0,0-2.07-4,8.47,8.47,0,0,0-3.31-2.44,10.41,10.41,0,0,0-4.63-.67,17.7,17.7,0,0,0-4.27.75,7.73,7.73,0,0,0-3.07,1.68,4.12,4.12,0,0,0-1,1.7,13.68,13.68,0,0,0-.56,2.57,30.54,30.54,0,0,0-.19,3.17c0,1.15,0,2.34.09,3.56a28,28,0,0,0,.79,5.22,12.19,12.19,0,0,0,1.84,4.07,7.8,7.8,0,0,0,3.13,2.58,9.72,9.72,0,0,0,4.69.72,18.78,18.78,0,0,0,4.49-.75A8,8,0,0,0,84,169.31a3.87,3.87,0,0,0,1-1.71,15.73,15.73,0,0,0,.58-2.64,28.85,28.85,0,0,0,.23-3.23C85.82,160.58,85.8,159.41,85.73,158.24Z"/><path class="cls-4" d="M96.65,135.58a3,3,0,0,0-1.29,0l0,.06a1,1,0,0,1-1.1-.64,4.48,4.48,0,0,1-.46-1.79,4,4,0,0,1,.25-1.83c.2-.56.54-.81,1-.76a21,21,0,0,0,3,0,32.56,32.56,0,0,0,3.38-.38,1.93,1.93,0,0,1,1.6.2,6.64,6.64,0,0,1,.84,1.36l.32.51,10.69,27.17-1.41-24c0-.55-.22-.87-.58-1a8.43,8.43,0,0,0-2,.12l-.05.07a1.66,1.66,0,0,1-1.51-.74,3.36,3.36,0,0,1-.57-1.78,3.13,3.13,0,0,1,.36-1.84,1.33,1.33,0,0,1,1.42-.67c1.53.06,3.09.05,4.69,0s3.19-.27,4.78-.52a1.08,1.08,0,0,1,1.27.57,3.54,3.54,0,0,1,.51,1.79,3.49,3.49,0,0,1-.3,1.84,1.27,1.27,0,0,1-1.18.83l-.12,0a2.26,2.26,0,0,0-.81.16.81.81,0,0,0-.48.91l2,33.67a4.94,4.94,0,0,1-.7,3.09,2.92,2.92,0,0,1-1.85,1.34A3.49,3.49,0,0,1,116,173a4.11,4.11,0,0,1-1.86-1.76l-11.09-29,1.46,24.9c0,.59.19.93.47,1a3.59,3.59,0,0,0,1.4-.14l.35,0a1.26,1.26,0,0,1,1.45.62,3,3,0,0,1,.63,1.84,2.92,2.92,0,0,1-.42,1.84,1.35,1.35,0,0,1-1.36.84c-1.8,0-3.38,0-4.75.05s-2.86.17-4.72.39c-.47.11-.83-.11-1.1-.64a4.61,4.61,0,0,1-.46-1.85,4.39,4.39,0,0,1,.24-1.89c.2-.56.54-.77,1-.65l.35,0a2.47,2.47,0,0,0,1.11-.06,1,1,0,0,0,.41-1L97.3,136.6C97.27,136,97.05,135.68,96.65,135.58Z"/><path class="cls-4" d="M129.53,171.58l-.36-6.08q7.5,3,12.24,2.68a8.56,8.56,0,0,0,5.69-2.25,6.3,6.3,0,0,0,1.91-5.12,6.63,6.63,0,0,0-1.7-4.24,19.27,19.27,0,0,0-5.56-3.66l-3.09-1.55q-5.7-2.84-8.14-5.49a10,10,0,0,1-2.64-6.34,10.58,10.58,0,0,1,3.14-8.47,13.4,13.4,0,0,1,9-3.77,36.74,36.74,0,0,1,10.65,1L151,134q-7-2.3-10.36-2.09a8,8,0,0,0-5.16,2,5.31,5.31,0,0,0-1.82,4.39,5.49,5.49,0,0,0,1.74,3.74,24.24,24.24,0,0,0,5.79,3.65l3.2,1.57q5.81,2.85,8.19,5.56a10.75,10.75,0,0,1,2.62,6.68,11.15,11.15,0,0,1-3.62,9.3q-3.94,3.67-10.82,4.07A43.29,43.29,0,0,1,129.53,171.58Z"/><path class="cls-4" d="M181.48,128.9l-12.45.73-6.29,41.22-2.81.16,6.28-41.21-12.39.73.34-2.43,27.65-1.62Z"/><path class="cls-4" d="M204.29,169l-5,.44a11.9,11.9,0,0,1-3-5.69,43.81,43.81,0,0,1-.67-6.48c-.2-3.37-1.06-5.78-2.6-7.23l-3.38.27,1.85,19.23-4.93-.15-4.12-44.14,5.8-.56q1.75-.18,1.26-.15a12.74,12.74,0,0,1,4.8.44q5,1.82,5.69,13,.39,6.65-2.68,9.86,2.15,1.91,2.62,6.36c.13,1.35.25,2.68.38,4s.25,2.65.38,4A10.38,10.38,0,0,0,204.29,169ZM194.94,138a19.27,19.27,0,0,0-.84-5.6c-.81-1.55-2.45-2.25-4.9-2.1l-1.44.08,1.34,14.26,1.3-.11,1.8-.22C194.25,143.89,195.16,141.78,194.94,138Z"/><path class="cls-4" d="M208.7,120.44c-.15,2.89-.14,6.47,0,10.72s.55,9.39,1.15,15.4c.33,3,.68,5.42,1,7.3a15.42,15.42,0,0,0,1.2,4.1q1.35,2.56,5.61,2.5c2.92-.06,4.67-1,5.23-3q.9-3.28.34-11.67-.53-9-1.09-15.43t-.92-10.64l4.07-.12a81,81,0,0,0,.1,10.93q.5,6.27.92,15.56t-.32,13q-.74,3.72-5.09,4.33a24.36,24.36,0,0,1-6.82.4q-2.41-.22-4.54-3.64a17.06,17.06,0,0,1-1.76-4.91,60,60,0,0,1-1.08-7.65c-.26-3-.48-5.84-.68-8.44s-.31-5-.36-7.18a66.46,66.46,0,0,0-1.21-11.34Z"/><path class="cls-4" d="M237.11,122.94a.64.64,0,0,1,.51.16c.13.12.27.28.44.46l21.77,25.62L257.56,123c0-.23.13-.37.44-.41s.82-.16,1.4-.25a14.57,14.57,0,0,1,1.69-.19.4.4,0,0,1,.49.41l1,28.54.32,5.35c0,.23-.14.37-.45.4s-.74.12-1.18.16-.87.08-1.32.11a.73.73,0,0,1-.42-.08,1.19,1.19,0,0,1-.31-.32l-21.93-25.81,2.31,26.85c0,.23-.13.37-.45.41s-.82.15-1.43.23-1.16.12-1.65.15c-.31,0-.48-.12-.49-.41l-1.07-30.5-2.58-3.13a.41.41,0,0,1-.14-.31c0-.26.15-.44.5-.56a10.77,10.77,0,0,1,1.18-.23l1.47-.22c.5-.07,1-.13,1.36-.17Z"/><path class="cls-4" d="M267.22,119.08a4,4,0,0,1-.46-1.79,4.58,4.58,0,0,1,.24-1.89,1.08,1.08,0,0,1,1.2-.66q2.52.09,5.8,0,3.74-.22,7.41-.73a11,11,0,0,1,10.27,5.09q3.72,5.36,4.32,15.64t-2.46,16a11,11,0,0,1-9.6,6.32q-3.76-.08-7.44.14-3.39.26-5.77.63a1.15,1.15,0,0,1-1.27-.63,4.3,4.3,0,0,1-.46-1.85,4.42,4.42,0,0,1,.24-1.89,1.06,1.06,0,0,1,1.19-.71,2.94,2.94,0,0,0,1.29,0c.42-.18.61-.58.57-1.21l-1.79-30.39c0-.71-.28-1.14-.72-1.31a1.56,1.56,0,0,0-1.29,0A1.18,1.18,0,0,1,267.22,119.08Zm10.52,33.23,5.43-.32q3.22-.19,5.29-4,2.49-4.54,2-13t-3.51-12.76q-2.49-3.44-5.7-3.24l-5.44.32Z"/><path class="cls-4" d="M323.1,153.42l-4.38-10.74-11.51.83-3.4,11.05-3,.17L311,124.37l3.45-1.23,12.91,30ZM318,140.76l-5.79-13.68-4.38,14.28Z"/></g></g></svg>